<?xml version="1.0" encoding="UTF-8" standalone="no"?>
<!-- Created with Inkscape (http://www.inkscape.org/) -->

<svg
   xmlns:dc="http://purl.org/dc/elements/1.1/"
   xmlns:cc="http://creativecommons.org/ns#"
   xmlns:rdf="http://www.w3.org/1999/02/22-rdf-syntax-ns#"
   xmlns:svg="http://www.w3.org/2000/svg"
   xmlns="http://www.w3.org/2000/svg"
   xmlns:sodipodi="http://sodipodi.sourceforge.net/DTD/sodipodi-0.dtd"
   xmlns:inkscape="http://www.inkscape.org/namespaces/inkscape"
   id="svg4155"
   version="1.1"
   inkscape:version="0.91 r13725"
   xml:space="preserve"
   width="127.21103"
   height="134.84625"
   viewBox="0 0 127.21103 134.84625"
   sodipodi:docname="insitu-land-logo.svg"><metadata
     id="metadata4161"><rdf:RDF><cc:Work
         rdf:about=""><dc:format>image/svg+xml</dc:format><dc:type
           rdf:resource="http://purl.org/dc/dcmitype/StillImage" /><dc:title /></cc:Work></rdf:RDF></metadata><defs
     id="defs4159"><clipPath
       clipPathUnits="userSpaceOnUse"
       id="clipPath4175"><path
         d="m 0,1082.89 595.28,0 L 595.28,0 0,0 0,1082.89 Z"
         id="path4177"
         inkscape:connector-curvature="0" /></clipPath><clipPath
       clipPathUnits="userSpaceOnUse"
       id="clipPath4193"><path
         d="m 0,1082.89 595.28,0 L 595.28,0 0,0 0,1082.89 Z"
         id="path4195"
         inkscape:connector-curvature="0" /></clipPath><clipPath
       clipPathUnits="userSpaceOnUse"
       id="clipPath4211"><path
         d="m 0,1082.89 595.28,0 L 595.28,0 0,0 0,1082.89 Z"
         id="path4213"
         inkscape:connector-curvature="0" /></clipPath><clipPath
       clipPathUnits="userSpaceOnUse"
       id="clipPath4229"><path
         d="m 0,1082.89 595.28,0 L 595.28,0 0,0 0,1082.89 Z"
         id="path4231"
         inkscape:connector-curvature="0" /></clipPath><clipPath
       clipPathUnits="userSpaceOnUse"
       id="clipPath4247"><path
         d="m 0,1082.89 595.28,0 L 595.28,0 0,0 0,1082.89 Z"
         id="path4249"
         inkscape:connector-curvature="0" /></clipPath><clipPath
       clipPathUnits="userSpaceOnUse"
       id="clipPath4277"><path
         d="m 0,1082.89 595.28,0 L 595.28,0 0,0 0,1082.89 Z"
         id="path4279"
         inkscape:connector-curvature="0" /></clipPath></defs><sodipodi:namedview
     pagecolor="#ffffff"
     bordercolor="#666666"
     borderopacity="1"
     objecttolerance="10"
     gridtolerance="10"
     guidetolerance="10"
     inkscape:pageopacity="0"
     inkscape:pageshadow="2"
     inkscape:window-width="1855"
     inkscape:window-height="1056"
     id="namedview4157"
     showgrid="false"
     inkscape:zoom="5.2422682"
     inkscape:cx="46.755294"
     inkscape:cy="61.858007"
     inkscape:window-x="65"
     inkscape:window-y="24"
     inkscape:window-maximized="1"
     inkscape:current-layer="g4163"
     fit-margin-top="0"
     fit-margin-left="0"
     fit-margin-right="0"
     fit-margin-bottom="0" /><g
     id="g4163"
     inkscape:groupmode="layer"
     inkscape:label="7 icones_Copernicus_2016"
     transform="matrix(1.25,0,0,-1.25,-552.45475,1238.9769)"><g
       id="g4437"
       transform="translate(441.9638,937.2495)"><path
         d="m 0,0 c 0,-29.792 23.615,-53.945 52.73,-53.945 8.431,0 16.274,1.976 23.336,5.571 0,0 0.134,0.074 0.059,0.201 -0.059,0.129 -0.182,0.064 -0.182,0.064 -5.431,-2.185 -11.22,-3.336 -17.402,-3.336 -26.512,0 -48.008,22.055 -48.008,49.267 0,27.214 21.496,49.27 48.008,49.27 18.816,0 35.09,-11.017 42.965,-27.194 0,0 0.066,-0.149 0.184,-0.106 0.13,0.051 0.06,0.194 0.06,0.194 C 94.013,39.928 74.988,53.932 52.73,53.932 23.615,53.932 0,29.785 0,0"
         style="fill:#a7be0f;fill-opacity:1;fill-rule:nonzero;stroke:none"
         id="path4439"
         inkscape:connector-curvature="0" /></g><g
       id="g4441"
       transform="translate(506.997,918.7383)"><path
         d="M 0,0 0.789,3.219 1.256,3.017 C -1.668,8.914 -0.074,15.689 0,16.003 l 0.789,3.21 0.467,-0.193 C -1.668,24.915 -0.074,31.699 0,32.013 l 0.789,3.21 3.024,-1.254 C 4.241,33.792 4.704,33.572 5.18,33.332 l 0,12.708 -16.159,0 0,-52.901 -3.269,0 0,28.882 -3.951,0 0,9.528 -14.186,0 0,-38.41 -3.273,0 0,19.148 -3.99,0 0,19.355 -9.485,0 c -1.636,-4.801 -2.537,-9.95 -2.537,-15.309 0,-9.948 3.072,-19.161 8.282,-26.727 l 43.634,0 C -1.238,-5.268 -0.062,-0.268 0,0"
         style="fill:#a7be0f;fill-opacity:1;fill-rule:nonzero;stroke:none"
         id="path4443"
         inkscape:connector-curvature="0" /></g><g
       id="g4445"
       transform="translate(521.0439,900.5737)"><path
         d="M 0,0 C -15.133,1.876 -11.301,17.477 -11.301,17.477 -11.301,17.477 2.201,11.892 0,0"
         style="fill:#a7be0f;fill-opacity:1;fill-rule:nonzero;stroke:none"
         id="path4447"
         inkscape:connector-curvature="0" /></g><g
       id="g4449"
       transform="translate(523.7206,900.5737)"><path
         d="M 0,0 C 15.128,1.876 11.301,17.477 11.301,17.477 11.301,17.477 -2.207,11.892 0,0"
         style="fill:#a7be0f;fill-opacity:1;fill-rule:nonzero;stroke:none"
         id="path4451"
         inkscape:connector-curvature="0" /></g><g
       id="g4453"
       transform="translate(521.0439,916.5771)"><path
         d="M 0,0 C -15.133,1.877 -11.301,17.477 -11.301,17.477 -11.301,17.477 2.201,11.891 0,0"
         style="fill:#a7be0f;fill-opacity:1;fill-rule:nonzero;stroke:none"
         id="path4455"
         inkscape:connector-curvature="0" /></g><g
       id="g4457"
       transform="translate(523.7206,916.5771)"><path
         d="M 0,0 C 15.128,1.877 11.301,17.477 11.301,17.477 11.301,17.477 -2.207,11.891 0,0"
         style="fill:#a7be0f;fill-opacity:1;fill-rule:nonzero;stroke:none"
         id="path4459"
         inkscape:connector-curvature="0" /></g><g
       id="g4461"
       transform="translate(521.0439,932.58)"><path
         d="M 0,0 C -15.133,1.876 -11.301,17.479 -11.301,17.479 -11.301,17.479 2.201,11.898 0,0"
         style="fill:#a7be0f;fill-opacity:1;fill-rule:nonzero;stroke:none"
         id="path4463"
         inkscape:connector-curvature="0" /></g><g
       id="g4465"
       transform="translate(523.7206,932.58)"><path
         d="M 0,0 C 15.128,1.876 11.301,17.479 11.301,17.479 11.301,17.479 -2.207,11.898 0,0"
         style="fill:#a7be0f;fill-opacity:1;fill-rule:nonzero;stroke:none"
         id="path4467"
         inkscape:connector-curvature="0" /></g><g
       id="g4469"
       transform="translate(522.3837,944.2632)"><path
         d="M 0,0 C 10.816,11.904 0,20.515 0,20.515 0,20.515 -10.821,11.904 0,0"
         style="fill:#a7be0f;fill-opacity:1;fill-rule:nonzero;stroke:none"
         id="path4471"
         inkscape:connector-curvature="0" /></g></g></svg>