<?xml version="1.0" encoding="UTF-8" standalone="no"?>
<!-- Created with Inkscape (http://www.inkscape.org/) -->

<svg
   xmlns:dc="http://purl.org/dc/elements/1.1/"
   xmlns:cc="http://creativecommons.org/ns#"
   xmlns:rdf="http://www.w3.org/1999/02/22-rdf-syntax-ns#"
   xmlns:svg="http://www.w3.org/2000/svg"
   xmlns="http://www.w3.org/2000/svg"
   xmlns:sodipodi="http://sodipodi.sourceforge.net/DTD/sodipodi-0.dtd"
   xmlns:inkscape="http://www.inkscape.org/namespaces/inkscape"
   id="svg4155"
   version="1.1"
   inkscape:version="0.91 r13725"
   xml:space="preserve"
   width="127.55943"
   height="133.50375"
   viewBox="0 0 127.55943 133.50375"
   sodipodi:docname="insitu-marine-logo.svg"><metadata
     id="metadata4161"><rdf:RDF><cc:Work
         rdf:about=""><dc:format>image/svg+xml</dc:format><dc:type
           rdf:resource="http://purl.org/dc/dcmitype/StillImage" /><dc:title /></cc:Work></rdf:RDF></metadata><defs
     id="defs4159"><clipPath
       clipPathUnits="userSpaceOnUse"
       id="clipPath4175"><path
         d="m 0,1082.89 595.28,0 L 595.28,0 0,0 0,1082.89 Z"
         id="path4177"
         inkscape:connector-curvature="0" /></clipPath><clipPath
       clipPathUnits="userSpaceOnUse"
       id="clipPath4193"><path
         d="m 0,1082.89 595.28,0 L 595.28,0 0,0 0,1082.89 Z"
         id="path4195"
         inkscape:connector-curvature="0" /></clipPath><clipPath
       clipPathUnits="userSpaceOnUse"
       id="clipPath4211"><path
         d="m 0,1082.89 595.28,0 L 595.28,0 0,0 0,1082.89 Z"
         id="path4213"
         inkscape:connector-curvature="0" /></clipPath><clipPath
       clipPathUnits="userSpaceOnUse"
       id="clipPath4229"><path
         d="m 0,1082.89 595.28,0 L 595.28,0 0,0 0,1082.89 Z"
         id="path4231"
         inkscape:connector-curvature="0" /></clipPath><clipPath
       clipPathUnits="userSpaceOnUse"
       id="clipPath4247"><path
         d="m 0,1082.89 595.28,0 L 595.28,0 0,0 0,1082.89 Z"
         id="path4249"
         inkscape:connector-curvature="0" /></clipPath><clipPath
       clipPathUnits="userSpaceOnUse"
       id="clipPath4277"><path
         d="m 0,1082.89 595.28,0 L 595.28,0 0,0 0,1082.89 Z"
         id="path4279"
         inkscape:connector-curvature="0" /></clipPath></defs><sodipodi:namedview
     pagecolor="#ffffff"
     bordercolor="#666666"
     borderopacity="1"
     objecttolerance="10"
     gridtolerance="10"
     guidetolerance="10"
     inkscape:pageopacity="0"
     inkscape:pageshadow="2"
     inkscape:window-width="1855"
     inkscape:window-height="1056"
     id="namedview4157"
     showgrid="false"
     inkscape:zoom="0.65528353"
     inkscape:cx="-205.53967"
     inkscape:cy="-3.5378882"
     inkscape:window-x="65"
     inkscape:window-y="24"
     inkscape:window-maximized="1"
     inkscape:current-layer="g4163"
     fit-margin-top="0"
     fit-margin-left="0"
     fit-margin-right="0"
     fit-margin-bottom="0" /><g
     id="g4163"
     inkscape:groupmode="layer"
     inkscape:label="7 icones_Copernicus_2016"
     transform="matrix(1.25,0,0,-1.25,-546.16562,1076.0775)"><g
       id="g4353"
       transform="translate(436.9325,807.463)"><path
         d="m 0,0 c 0,-29.493 23.676,-53.404 52.877,-53.404 8.447,0 16.315,1.957 23.399,5.517 0,0 0.134,0.069 0.062,0.203 -0.062,0.125 -0.19,0.057 -0.19,0.057 -5.441,-2.161 -11.25,-3.299 -17.449,-3.299 -26.585,0 -48.134,21.834 -48.134,48.772 0,26.938 21.549,48.775 48.134,48.775 18.87,0 35.19,-10.905 43.084,-26.919 0,0 0.07,-0.147 0.184,-0.102 0.132,0.049 0.062,0.19 0.062,0.19 C 94.269,39.535 75.193,53.399 52.877,53.399 23.676,53.399 0,29.493 0,0"
         style="fill:#32639f;fill-opacity:1;fill-rule:nonzero;stroke:none"
         id="path4355"
         inkscape:connector-curvature="0" /></g><g
       id="g4529"
       transform="translate(533.244,787.8271)"><path
         d="m 0,0 0,6.692 c -25.526,-10.376 -51.052,9.183 -76.575,1.076 0.853,-2.044 1.873,-4.001 3.027,-5.862 C -49.031,7.673 -24.515,-9.965 0,0"
         style="fill:#32639f;fill-opacity:1;fill-rule:nonzero;stroke:none"
         id="path4531"
         inkscape:connector-curvature="0" /></g><g
       id="g4533"
       transform="translate(518.1366,814.9258)"><path
         d="M 0,0 C -1.248,-0.007 -2.267,1 -2.272,2.25 -2.278,3.499 -1.271,4.519 -0.021,4.523 1.229,4.53 2.247,3.522 2.252,2.273 2.259,1.023 1.25,0.005 0,0 m -11.015,0.671 c -0.015,3.231 2.199,5.94 5.16,6.573 -1.732,-1.621 -2.816,-3.962 -2.803,-6.561 0.011,-2.599 1.12,-4.928 2.868,-6.531 -2.969,0.606 -5.209,3.288 -5.225,6.519 m -12.767,16.569 0,-4.517 c -5.699,-1.481 -12.151,-4.465 -19.425,-9.633 -0.596,0.906 -3.993,5.553 -12.383,7.962 2.279,-7.238 3.073,-10.606 3.073,-10.606 0,0 -0.794,-3.371 -3.073,-10.608 8.759,2.517 12.085,7.483 12.453,8.068 C -6.813,-27.32 9.229,0.773 9.229,0.773 0.251,15.176 -23.782,17.24 -23.782,17.24"
         style="fill:#32639f;fill-opacity:1;fill-rule:nonzero;stroke:none"
         id="path4535"
         inkscape:connector-curvature="0" /></g></g></svg>