<?xml version="1.0" encoding="UTF-8" standalone="no"?>
<!-- Created with Inkscape (http://www.inkscape.org/) -->

<svg
   xmlns:dc="http://purl.org/dc/elements/1.1/"
   xmlns:cc="http://creativecommons.org/ns#"
   xmlns:rdf="http://www.w3.org/1999/02/22-rdf-syntax-ns#"
   xmlns:svg="http://www.w3.org/2000/svg"
   xmlns="http://www.w3.org/2000/svg"
   xmlns:sodipodi="http://sodipodi.sourceforge.net/DTD/sodipodi-0.dtd"
   xmlns:inkscape="http://www.inkscape.org/namespaces/inkscape"
   id="svg4155"
   version="1.1"
   inkscape:version="0.91 r13725"
   xml:space="preserve"
   width="127.62032"
   height="133.5025"
   viewBox="0 0 127.62031 133.5025"
   sodipodi:docname="insitu-atmosphere-logo.svg"><metadata
     id="metadata4161"><rdf:RDF><cc:Work
         rdf:about=""><dc:format>image/svg+xml</dc:format><dc:type
           rdf:resource="http://purl.org/dc/dcmitype/StillImage" /><dc:title /></cc:Work></rdf:RDF></metadata><defs
     id="defs4159"><clipPath
       clipPathUnits="userSpaceOnUse"
       id="clipPath4175"><path
         d="m 0,1082.89 595.28,0 L 595.28,0 0,0 0,1082.89 Z"
         id="path4177"
         inkscape:connector-curvature="0" /></clipPath><clipPath
       clipPathUnits="userSpaceOnUse"
       id="clipPath4193"><path
         d="m 0,1082.89 595.28,0 L 595.28,0 0,0 0,1082.89 Z"
         id="path4195"
         inkscape:connector-curvature="0" /></clipPath><clipPath
       clipPathUnits="userSpaceOnUse"
       id="clipPath4211"><path
         d="m 0,1082.89 595.28,0 L 595.28,0 0,0 0,1082.89 Z"
         id="path4213"
         inkscape:connector-curvature="0" /></clipPath><clipPath
       clipPathUnits="userSpaceOnUse"
       id="clipPath4229"><path
         d="m 0,1082.89 595.28,0 L 595.28,0 0,0 0,1082.89 Z"
         id="path4231"
         inkscape:connector-curvature="0" /></clipPath><clipPath
       clipPathUnits="userSpaceOnUse"
       id="clipPath4247"><path
         d="m 0,1082.89 595.28,0 L 595.28,0 0,0 0,1082.89 Z"
         id="path4249"
         inkscape:connector-curvature="0" /></clipPath><clipPath
       clipPathUnits="userSpaceOnUse"
       id="clipPath4277"><path
         d="m 0,1082.89 595.28,0 L 595.28,0 0,0 0,1082.89 Z"
         id="path4279"
         inkscape:connector-curvature="0" /></clipPath></defs><sodipodi:namedview
     pagecolor="#ffffff"
     bordercolor="#666666"
     borderopacity="1"
     objecttolerance="10"
     gridtolerance="10"
     guidetolerance="10"
     inkscape:pageopacity="0"
     inkscape:pageshadow="2"
     inkscape:window-width="1855"
     inkscape:window-height="1056"
     id="namedview4157"
     showgrid="false"
     inkscape:zoom="0.65528353"
     inkscape:cx="10.121192"
     inkscape:cy="-102.29867"
     inkscape:window-x="65"
     inkscape:window-y="24"
     inkscape:window-maximized="1"
     inkscape:current-layer="g4163"
     fit-margin-top="0"
     fit-margin-left="0"
     fit-margin-right="0"
     fit-margin-bottom="0" /><g
     id="g4163"
     inkscape:groupmode="layer"
     inkscape:label="7 icones_Copernicus_2016"
     transform="matrix(1.25,0,0,-1.25,-546.16562,913.567)"><g
       id="g4329"
       transform="translate(436.9325,677.4546)"><path
         d="m 0,0 c 0,-29.493 23.676,-53.403 52.877,-53.403 8.446,0 16.316,1.956 23.4,5.517 0,0 0.133,0.069 0.063,0.203 -0.063,0.124 -0.194,0.057 -0.194,0.057 -5.437,-2.162 -11.248,-3.299 -17.445,-3.299 -26.587,0 -48.135,21.833 -48.135,48.771 0,26.938 21.548,48.775 48.135,48.775 18.868,0 35.19,-10.905 43.082,-26.919 0,0 0.071,-0.147 0.186,-0.102 0.13,0.049 0.061,0.19 0.061,0.19 C 94.269,39.535 75.195,53.399 52.877,53.399 23.676,53.399 0,29.493 0,0"
         style="fill:#66cde2;fill-opacity:1;fill-rule:nonzero;stroke:none"
         id="path4331"
         inkscape:connector-curvature="0" /></g><g
       id="g4361"
       transform="translate(537.2489,685.8862)"><path
         d="m 0,0 c -1.418,2.099 -3.741,4.999 -7.196,8.013 -3.441,3.009 -8.043,6.11 -13.693,8.434 -5.632,2.331 -12.318,3.835 -19.389,3.829 -7.072,0.006 -13.758,-1.498 -19.39,-3.829 C -65.317,14.123 -69.92,11.022 -73.36,8.013 -76.815,4.999 -79.139,2.099 -80.557,0 c -1.414,-2.113 -1.953,-3.424 -1.732,-3.577 0.24,-0.169 1.216,0.826 2.955,2.567 1.748,1.732 4.289,4.207 7.779,6.775 3.481,2.566 7.936,5.209 13.258,7.183 5.311,1.981 11.492,3.254 18.019,3.25 6.526,0.004 12.708,-1.269 18.018,-3.25 5.323,-1.974 9.778,-4.617 13.258,-7.183 3.49,-2.569 6.031,-5.043 7.779,-6.775 1.74,-1.741 2.715,-2.736 2.955,-2.568 C 1.953,-3.424 1.414,-2.113 0,0"
         style="fill:#66cde2;fill-opacity:1;fill-rule:nonzero;stroke:none"
         id="path4363"
         inkscape:connector-curvature="0" /></g><g
       id="g4365"
       transform="translate(495.2079,688.2866)"><path
         d="m 0,0 c -8.629,-1.434 -20.646,-7.514 -20.646,-33.849 0,0 4.974,20.927 11.378,26.873 6.405,5.948 13.208,5.718 13.208,5.718"
         style="fill:#66cde2;fill-opacity:1;fill-rule:nonzero;stroke:none"
         id="path4367"
         inkscape:connector-curvature="0" /></g><g
       id="g4369"
       transform="translate(498.3017,688.2866)"><path
         d="m 0,0 c 8.629,-1.434 20.646,-7.514 20.646,-33.849 0,0 -4.974,20.927 -11.379,26.873 -6.404,5.948 -13.207,5.718 -13.207,5.718"
         style="fill:#66cde2;fill-opacity:1;fill-rule:nonzero;stroke:none"
         id="path4371"
         inkscape:connector-curvature="0" /></g><g
       id="g4373"
       transform="translate(496.9755,689.4301)"><path
         d="m 0,0 c 0,0 -5.49,-11.664 -5.49,-33.963 0,0 4.349,25.859 9.834,32.82"
         style="fill:#66cde2;fill-opacity:1;fill-rule:nonzero;stroke:none"
         id="path4375"
         inkscape:connector-curvature="0" /></g><g
       id="g4377"
       transform="translate(467.2939,675.9653)"><path
         d="m 0,0 c -4.391,-5.981 -6.988,-13.359 -6.988,-21.349 0,-0.947 0.047,-1.882 0.119,-2.811 0.654,8.48 4.24,16.134 9.738,21.963 C 1.754,-1.504 0.791,-0.771 0,0"
         style="fill:#66cde2;fill-opacity:1;fill-rule:nonzero;stroke:none"
         id="path4379"
         inkscape:connector-curvature="0" /></g><g
       id="g4381"
       transform="translate(532.4169,651.8051)"><path
         d="m 0,0 c 0.072,0.929 0.119,1.864 0.119,2.812 0,6.771 -1.867,13.104 -5.107,18.52 C -5.893,20.834 -6.879,20.36 -7.939,19.915 -3.461,14.391 -0.58,7.519 0,0"
         style="fill:#66cde2;fill-opacity:1;fill-rule:nonzero;stroke:none"
         id="path4383"
         inkscape:connector-curvature="0" /></g><g
       id="g4385"
       transform="translate(496.4208,685.1098)"><path
         d="m 0,0 c 10.315,0 19.607,-4.33 26.186,-11.264 1.228,0.444 2.373,0.924 3.429,1.432 C 23.086,-0.491 12.262,5.623 0,5.623 c -11.178,0 -21.168,-5.08 -27.793,-13.055 0.967,-0.738 2.098,-1.436 3.373,-2.087 C -17.992,-3.611 -9.42,0 0,0"
         style="fill:#66cde2;fill-opacity:1;fill-rule:nonzero;stroke:none"
         id="path4387"
         inkscape:connector-curvature="0" /></g><g
       id="g4389"
       transform="translate(499.3349,670.2758)"><path
         d="M 0,0 C -11.117,0 -21.006,2.081 -27.334,5.315 -27.969,4.73 -28.58,4.12 -29.172,3.492 -23.029,-0.325 -12.264,-2.859 0,-2.859 c 9.908,0 18.836,1.655 25.143,4.303 C 24.549,2.179 23.922,2.886 23.271,3.57 17.127,1.353 8.961,0 0,0"
         style="fill:#66cde2;fill-opacity:1;fill-rule:nonzero;stroke:none"
         id="path4391"
         inkscape:connector-curvature="0" /></g><g
       id="g4393"
       transform="translate(522.6064,673.8462)"><path
         d="m 0,0 c 0.65,-0.685 1.277,-1.392 1.871,-2.126 1.061,0.445 2.047,0.919 2.951,1.417 C 4.383,0.022 3.916,0.735 3.43,1.432 2.373,0.924 1.229,0.443 0,0"
         style="fill:#66cde2;fill-opacity:1;fill-rule:nonzero;stroke:none"
         id="path4395"
         inkscape:connector-curvature="0" /></g><g
       id="g4397"
       transform="translate(472.0009,675.5903)"><path
         d="M 0,0 C -1.275,0.651 -2.406,1.35 -3.373,2.088 -3.836,1.531 -4.277,0.959 -4.707,0.375 -3.916,-0.396 -2.953,-1.129 -1.838,-1.822 -1.246,-1.194 -0.635,-0.584 0,0"
         style="fill:#66cde2;fill-opacity:1;fill-rule:nonzero;stroke:none"
         id="path4399"
         inkscape:connector-curvature="0" /></g></g></svg>