<?xml version="1.0" encoding="UTF-8" standalone="no"?>
<!-- Created with Inkscape (http://www.inkscape.org/) -->

<svg
   xmlns:dc="http://purl.org/dc/elements/1.1/"
   xmlns:cc="http://creativecommons.org/ns#"
   xmlns:rdf="http://www.w3.org/1999/02/22-rdf-syntax-ns#"
   xmlns:svg="http://www.w3.org/2000/svg"
   xmlns="http://www.w3.org/2000/svg"
   xmlns:sodipodi="http://sodipodi.sourceforge.net/DTD/sodipodi-0.dtd"
   xmlns:inkscape="http://www.inkscape.org/namespaces/inkscape"
   id="svg4155"
   version="1.1"
   inkscape:version="0.91 r13725"
   xml:space="preserve"
   width="127.55943"
   height="133.5"
   viewBox="0 0 127.55942 133.5"
   sodipodi:docname="insitu-emergency-logo.svg"><metadata
     id="metadata4161"><rdf:RDF><cc:Work
         rdf:about=""><dc:format>image/svg+xml</dc:format><dc:type
           rdf:resource="http://purl.org/dc/dcmitype/StillImage" /><dc:title /></cc:Work></rdf:RDF></metadata><defs
     id="defs4159"><clipPath
       clipPathUnits="userSpaceOnUse"
       id="clipPath4175"><path
         d="m 0,1082.89 595.28,0 L 595.28,0 0,0 0,1082.89 Z"
         id="path4177"
         inkscape:connector-curvature="0" /></clipPath><clipPath
       clipPathUnits="userSpaceOnUse"
       id="clipPath4193"><path
         d="m 0,1082.89 595.28,0 L 595.28,0 0,0 0,1082.89 Z"
         id="path4195"
         inkscape:connector-curvature="0" /></clipPath><clipPath
       clipPathUnits="userSpaceOnUse"
       id="clipPath4211"><path
         d="m 0,1082.89 595.28,0 L 595.28,0 0,0 0,1082.89 Z"
         id="path4213"
         inkscape:connector-curvature="0" /></clipPath><clipPath
       clipPathUnits="userSpaceOnUse"
       id="clipPath4229"><path
         d="m 0,1082.89 595.28,0 L 595.28,0 0,0 0,1082.89 Z"
         id="path4231"
         inkscape:connector-curvature="0" /></clipPath><clipPath
       clipPathUnits="userSpaceOnUse"
       id="clipPath4247"><path
         d="m 0,1082.89 595.28,0 L 595.28,0 0,0 0,1082.89 Z"
         id="path4249"
         inkscape:connector-curvature="0" /></clipPath><clipPath
       clipPathUnits="userSpaceOnUse"
       id="clipPath4277"><path
         d="m 0,1082.89 595.28,0 L 595.28,0 0,0 0,1082.89 Z"
         id="path4279"
         inkscape:connector-curvature="0" /></clipPath></defs><sodipodi:namedview
     pagecolor="#ffffff"
     bordercolor="#666666"
     borderopacity="1"
     objecttolerance="10"
     gridtolerance="10"
     guidetolerance="10"
     inkscape:pageopacity="0"
     inkscape:pageshadow="2"
     inkscape:window-width="1855"
     inkscape:window-height="1056"
     id="namedview4157"
     showgrid="false"
     inkscape:zoom="0.65528353"
     inkscape:cx="-240.1313"
     inkscape:cy="8.6656788"
     inkscape:window-x="65"
     inkscape:window-y="24"
     inkscape:window-maximized="1"
     inkscape:current-layer="g4163"
     fit-margin-top="0"
     fit-margin-left="0"
     fit-margin-right="0"
     fit-margin-bottom="0" /><g
     id="g4163"
     inkscape:groupmode="layer"
     inkscape:label="7 icones_Copernicus_2016"
     transform="matrix(1.25,0,0,-1.25,-546.16563,751.05288)"><g
       id="g4325"
       transform="translate(436.9325,547.4443)"><path
         d="m 0,0 c 0,-29.492 23.674,-53.402 52.877,-53.402 8.446,0 16.314,1.955 23.399,5.515 0,0 0.134,0.069 0.062,0.203 -0.062,0.125 -0.192,0.058 -0.192,0.058 -5.439,-2.161 -11.248,-3.3 -17.447,-3.3 -26.585,0 -48.134,21.834 -48.134,48.773 0,26.938 21.549,48.774 48.134,48.774 18.87,0 35.19,-10.904 43.084,-26.92 0,0 0.07,-0.145 0.184,-0.101 0.132,0.048 0.062,0.189 0.062,0.189 C 94.269,39.535 75.193,53.398 52.877,53.398 23.674,53.398 0,29.492 0,0"
         style="fill:#f89c2c;fill-opacity:1;fill-rule:nonzero;stroke:none"
         id="path4327"
         inkscape:connector-curvature="0" /></g><g
       id="g4505"
       transform="translate(514.9599,537.9892)"><path
         d="m 0,0 c 0,0 -2.146,6.8 -6.602,11.11 -4.45,4.311 -7.9,4.6 -7.9,4.6 -0.941,0.151 -0.933,-0.438 -0.926,-0.96 0.008,-0.521 0.426,-0.778 0.957,-0.933 0,0 6.387,-1.622 9.479,-13.256 0.17,-0.637 -1.218,-1.753 -1.459,-1.114 l -1.761,4.491 c -1.155,2.85 -2.138,3.339 -2.622,3.382 0,0 -1.422,0.123 -1.172,-2.117 0.877,-10.347 5.523,-15.849 8.456,-18.341 l 9.499,0 C 1.615,-8.552 0,0 0,0"
         style="fill:#ffffff;fill-opacity:1;fill-rule:nonzero;stroke:none"
         id="path4507"
         inkscape:connector-curvature="0" /></g><g
       id="g4509"
       transform="translate(475.0829,524.8515)"><path
         d="m 0,0 5.014,0 c 2.933,2.49 7.578,7.993 8.456,18.341 0.251,2.24 -1.171,2.117 -1.171,2.117 -0.485,-0.043 -1.469,-0.531 -2.622,-3.383 l -1.761,-4.49 c -0.242,-0.64 -1.629,0.478 -1.459,1.113 3.09,11.635 9.479,13.257 9.479,13.257 0.529,0.154 0.948,0.411 0.957,0.933 0.006,0.521 0.013,1.109 -0.928,0.958 0,0 -3.449,-0.287 -7.899,-4.598 -4.455,-4.311 -6.602,-11.11 -6.602,-11.11 0,0 -1.132,-5.99 -4.04,-10.634 C -1.762,1.626 -0.904,0.786 0,0"
         style="fill:#ffffff;fill-opacity:1;fill-rule:nonzero;stroke:none"
         id="path4511"
         inkscape:connector-curvature="0" /></g><g
       id="g4513"
       transform="translate(495.7567,584.333)"><path
         d="m 0,0 -38.059,-62.157 c -0.076,-1.548 2.101,-3.293 2.101,-3.293 l 6.491,0 c 3.561,5.678 5.973,16.067 5.973,16.067 0,0 2.627,8.318 8.076,13.59 5.441,5.272 9.66,5.623 9.66,5.623 1.153,0.186 1.143,-0.533 1.135,-1.172 -0.01,-0.637 -0.522,-0.951 -1.17,-1.14 0,0 -7.814,-1.984 -11.594,-16.212 -0.209,-0.782 1.489,-2.147 1.784,-1.365 l 2.154,5.493 c 1.412,3.486 2.613,4.084 3.207,4.137 0,0 1.738,0.151 1.433,-2.59 -1.074,-12.655 -6.754,-19.387 -10.343,-22.431 l 14.898,0 0,8.358 -1.373,0 0,5.717 c -0.176,3.643 1.647,5.545 2.787,6.359 l 2.838,-3.181 2.838,3.181 c 1.139,-0.814 2.967,-2.716 2.787,-6.359 l 0,-5.717 -1.371,0 0,-8.358 14.897,0 c -3.588,3.044 -9.27,9.776 -10.342,22.431 -0.307,2.741 1.431,2.59 1.431,2.59 0.594,-0.053 1.795,-0.651 3.207,-4.137 l 2.155,-5.493 c 0.295,-0.782 1.992,0.583 1.785,1.365 -3.781,14.228 -11.594,16.212 -11.594,16.212 -0.65,0.189 -1.162,0.503 -1.172,1.14 -0.008,0.639 -0.017,1.358 1.135,1.172 0,0 4.219,-0.351 9.662,-5.623 5.449,-5.272 8.074,-13.59 8.074,-13.59 0,0 1.977,-10.46 7.278,-16.067 l 9.384,0 L 0,0 Z"
         style="fill:#f89c2c;fill-opacity:1;fill-rule:nonzero;stroke:none"
         id="path4515"
         inkscape:connector-curvature="0" /></g><g
       id="g4517"
       transform="translate(498.9462,543.4765)"><path
         d="m 0,0 c 0,-1.763 -1.43,-4.159 -3.19,-4.159 -1.761,0 -3.191,2.396 -3.191,4.159 0,1.762 1.43,3.19 3.191,3.19 C -1.43,3.19 0,1.762 0,0"
         style="fill:#ffffff;fill-opacity:1;fill-rule:nonzero;stroke:none"
         id="path4519"
         inkscape:connector-curvature="0" /></g></g></svg>